<?xml version="1.0" standalone="no"?>
<!DOCTYPE svg PUBLIC "-//W3C//DTD SVG 20010904//EN"
 "http://www.w3.org/TR/2001/REC-SVG-20010904/DTD/svg10.dtd">
<svg version="1.0" xmlns="http://www.w3.org/2000/svg"
 width="800.000000pt" height="800.000000pt" viewBox="0 0 800.000000 800.000000"
 preserveAspectRatio="xMidYMid meet">
<metadata>
Created by potrace 1.14, written by Peter Selinger 2001-2017
</metadata>
<g transform="translate(0.000000,800.000000) scale(0.100000,-0.100000)"
fill="#000000" stroke="none">
<path d="M2786 5714 c-16 -20 -42 -42 -58 -48 l-29 -13 25 -16 c14 -10 29 -17
33 -17 4 0 19 -16 32 -35 28 -42 34 -43 49 -11 6 14 29 35 51 48 23 13 41 25
41 28 0 3 -15 12 -33 21 -17 8 -41 30 -52 47 -11 17 -22 31 -25 32 -3 0 -18
-16 -34 -36z"/>
<path d="M3437 5684 c-9 -42 -60 -99 -112 -124 -48 -23 -50 -34 -9 -44 39 -10
103 -75 118 -121 l14 -39 20 45 c23 51 59 84 122 115 38 19 42 23 25 29 -60
20 -145 90 -145 119 0 7 -6 20 -13 31 -13 17 -14 16 -20 -11z"/>
<path d="M2094 5387 c-79 -120 -175 -286 -175 -302 0 -2 -8 -25 -19 -51 -11
-25 -20 -48 -20 -51 0 -3 -6 -19 -14 -36 -15 -34 -34 -92 -40 -123 -3 -10 -10
-32 -16 -49 -7 -16 -14 -39 -16 -50 -1 -11 -10 -54 -19 -95 -9 -41 -19 -97
-21 -123 -3 -27 -8 -77 -13 -113 -12 -101 -4 -362 14 -464 1 -8 6 -35 10 -60
11 -65 12 -71 23 -115 6 -22 13 -51 16 -65 2 -14 8 -36 14 -50 5 -14 15 -43
22 -65 43 -137 136 -336 211 -449 21 -32 39 -60 39 -63 0 -2 6 -10 13 -17 6
-8 19 -24 27 -36 62 -93 189 -234 289 -320 35 -30 69 -60 75 -65 36 -33 232
-168 246 -170 3 0 16 -8 30 -17 53 -36 259 -127 355 -158 86 -27 183 -53 250
-66 11 -2 33 -7 50 -10 16 -4 46 -8 65 -11 74 -8 105 -12 105 -14 0 -4 351 -6
358 -2 4 3 38 7 75 9 93 7 92 7 92 13 0 4 12 6 28 5 39 -1 190 33 312 71 144
45 256 95 445 199 11 6 22 14 25 17 3 3 32 23 65 44 123 80 275 215 406 362
44 50 59 61 77 56 12 -3 22 -9 22 -12 0 -4 6 -8 13 -9 6 -1 23 -4 37 -7 18 -4
33 1 52 18 48 42 152 142 178 172 47 53 1 14 -72 -61 -40 -41 -90 -86 -111
-101 l-37 -26 -48 24 c-26 13 -48 27 -50 32 -2 4 -9 7 -17 7 -7 0 -18 7 -25
15 -7 8 -16 12 -21 9 -5 -3 -9 -1 -9 4 0 5 -8 12 -17 15 -21 7 -209 130 -241
157 -12 11 -25 20 -29 20 -6 0 -184 130 -207 151 -6 5 16 33 54 69 35 33 60
60 54 60 -18 -1 -139 -121 -126 -127 25 -10 11 -41 -41 -89 -88 -82 -158 -131
-176 -124 -2 1 -7 -4 -12 -11 -4 -8 -11 -10 -15 -6 -4 3 -1 13 5 21 7 8 9 21
5 27 -4 8 -3 9 4 5 7 -4 12 -2 12 4 0 6 5 8 13 4 9 -6 9 -5 0 7 -6 8 -12 19
-12 24 -1 6 -8 10 -17 10 -9 0 -34 17 -54 38 -47 46 -94 47 -135 3 -20 -22
-28 -97 -11 -108 6 -4 -3 -11 -19 -17 -17 -6 -42 -18 -56 -26 -24 -13 -31 -13
-71 5 -49 21 -130 28 -195 16 -40 -8 -42 -7 -59 25 -21 41 -63 79 -87 79 -10
0 -16 4 -13 9 6 8 -34 7 -82 -3 -19 -4 -28 3 -49 38 -47 78 -121 107 -188 75
-16 -8 -35 -25 -42 -39 -7 -14 -13 -20 -13 -15 0 6 -7 -3 -15 -19 -8 -15 -13
-32 -10 -36 3 -4 -3 -11 -13 -15 -23 -11 -62 -14 -62 -5 0 13 -45 5 -69 -12
-13 -9 -29 -27 -35 -40 -11 -21 -17 -23 -89 -21 l-78 2 -50 -49 c-39 -38 -55
-48 -67 -41 -10 5 -39 8 -66 6 -58 -3 -91 -32 -102 -90 -3 -20 -12 -35 -20
-35 -36 0 -249 124 -324 189 -14 12 -45 39 -70 60 -158 137 -266 260 -378 436
-58 91 -174 374 -189 460 -2 11 -10 54 -17 95 -8 41 -12 78 -10 82 3 5 1 8 -4
8 -11 0 -12 15 -16 228 -1 94 0 172 3 172 3 0 6 27 7 60 0 51 -2 58 -15 47
-12 -10 -13 -9 -6 3 5 8 10 26 11 40 2 38 3 42 12 36 4 -2 7 11 6 30 -1 19 2
37 7 40 5 3 9 13 9 23 0 31 105 276 146 342 13 20 20 40 17 43 -4 3 -2 6 4 6
9 0 37 49 31 56 -2 1 -13 -12 -24 -29z m-227 -1232 c0 -8 -4 -15 -9 -15 -4 0
-8 7 -8 15 0 8 4 15 8 15 5 0 9 -7 9 -15z m-2 -34 c-3 -5 -1 -12 5 -16 6 -4 8
-11 4 -16 -3 -5 -1 -15 4 -22 8 -11 17 -39 26 -92 12 -62 15 -75 20 -83 3 -5
7 -19 9 -33 3 -13 13 -42 22 -64 10 -22 17 -46 16 -52 -1 -7 3 -13 9 -13 5 0
10 -5 10 -11 0 -7 25 -64 55 -127 31 -63 54 -117 51 -119 -2 -2 -10 10 -17 26
-8 17 -17 31 -20 31 -3 0 -14 18 -24 40 -10 22 -22 40 -27 40 -4 0 -7 3 -6 8
1 8 -5 24 -33 87 -21 49 -80 220 -85 249 -2 11 -8 44 -14 71 -18 89 -19 105
-9 105 6 0 8 -4 4 -9z m3205 -936 c0 -7 -79 -86 -105 -105 -11 -8 -4 3 15 25
19 21 44 49 55 61 19 22 35 30 35 19z m-2746 -133 c34 -36 80 -85 104 -110 23
-25 42 -41 42 -36 0 5 5 1 11 -8 8 -15 79 -68 137 -103 9 -5 35 -21 57 -35 22
-14 54 -32 70 -40 17 -8 47 -25 67 -38 20 -13 40 -22 45 -19 4 3 15 -2 23 -11
13 -14 13 -15 0 -10 -8 3 -32 11 -52 19 -21 7 -38 17 -38 21 0 4 -7 8 -15 8
-15 0 -73 30 -117 61 -14 11 -30 19 -35 19 -5 0 -15 9 -23 19 -7 11 -17 18
-21 15 -4 -2 -14 4 -21 13 -7 10 -20 19 -28 21 -8 1 -25 14 -37 28 -13 14 -23
23 -23 20 0 -3 -24 17 -52 44 -29 27 -56 50 -60 50 -5 0 -8 5 -8 11 0 6 -10
19 -22 29 -27 21 -98 118 -78 105 7 -5 41 -37 74 -73z m80 39 c-3 -3 -15 6
-27 18 l-22 24 27 -19 c14 -10 24 -21 22 -23z m96 -81 c19 -18 47 -39 62 -48
16 -9 28 -23 28 -32 -1 -12 -3 -12 -14 3 -7 9 -17 17 -21 17 -11 0 -66 48 -63
56 2 3 -10 13 -27 22 -16 10 -31 24 -33 32 -3 12 0 12 15 -2 10 -9 34 -31 53
-48z m2846 -61 c-8 -11 -25 -28 -38 -37 -14 -10 -10 -2 12 21 40 42 48 47 26
16z m-2697 -48 c19 -16 46 -35 60 -42 49 -26 91 -54 91 -63 0 -5 -8 -2 -18 7
-10 10 -22 14 -25 10 -4 -3 -7 -1 -7 5 0 7 -5 12 -11 12 -12 0 -101 59 -110
73 -3 5 -10 8 -15 7 -5 -1 -10 3 -12 9 -6 19 12 12 47 -18z m-177 -84 c20 -17
50 -43 67 -57 17 -14 31 -29 31 -34 0 -4 -7 -3 -15 4 -8 7 -15 9 -15 5 0 -5
-8 2 -19 13 -10 12 -20 20 -22 18 -2 -2 -24 16 -48 40 -51 51 -34 60 21 11z
m374 -39 c3 -4 -1 -5 -10 -4 -8 1 -18 5 -22 8 -3 4 1 5 10 4 8 -1 18 -5 22 -8z
m1414 -116 c0 -4 -18 -13 -40 -19 -22 -5 -40 -7 -40 -3 0 5 17 12 38 18 20 5
38 10 40 11 1 1 2 -3 2 -7z m-95 -31 c-9 -8 -36 -10 -30 -2 2 4 11 8 20 8 8 0
13 -3 10 -6z m-905 -11 c8 -5 11 -10 5 -10 -5 0 -17 5 -25 10 -8 5 -10 10 -5
10 6 0 17 -5 25 -10z m855 0 c-3 -5 -12 -10 -18 -10 -7 0 -6 4 3 10 19 12 23
12 15 0z m-775 -10 c12 -8 9 -10 -13 -10 -16 0 -26 4 -22 10 8 12 16 12 35 0z
m735 0 c-3 -5 -18 -9 -33 -9 l-27 1 30 8 c17 4 31 8 33 9 2 0 0 -3 -3 -9z
m465 -5 c0 11 20 -16 20 -27 0 -5 -7 -8 -15 -8 -8 0 -15 -4 -15 -10 0 -5 -7
-10 -15 -10 -17 0 -36 32 -27 47 11 16 36 21 44 9 5 -6 8 -7 8 -1z m-1125 -5
c0 -3 39 -7 121 -11 49 -3 61 -6 56 -18 -3 -8 -7 -11 -9 -5 -2 5 -20 9 -41 8
-52 -2 -164 14 -175 25 -4 4 5 7 20 5 15 -1 28 -3 28 -4z m215 -26 c0 -8 -5
-12 -10 -9 -6 4 -8 11 -5 16 9 14 15 11 15 -7z m53 -1 c-7 -2 -21 -2 -30 0
-10 3 -4 5 12 5 17 0 24 -2 18 -5z m200 -207 c10 -24 -13 -41 -50 -37 -16 1
-17 28 -1 45 14 15 44 10 51 -8z"/>
<path d="M4490 5408 c-21 -8 -58 -43 -61 -57 -13 -65 3 -105 48 -122 64 -24
133 26 133 96 0 64 -59 106 -120 83z"/>
<path d="M3092 5336 c-30 -31 -45 -65 -22 -51 6 3 10 3 10 -2 1 -4 9 -18 19
-30 l19 -22 36 34 36 34 -22 15 c-12 9 -27 25 -33 35 -10 19 -12 19 -43 -13z"/>
<path d="M5187 5351 c-30 -7 -67 -54 -67 -87 0 -12 7 -41 15 -64 l15 -42 -28
6 c-15 4 -76 9 -137 12 -94 5 -118 3 -168 -15 -67 -23 -154 -91 -163 -127 -3
-13 -9 -24 -13 -24 -10 0 -13 -95 -3 -121 5 -13 22 -36 37 -52 16 -15 26 -29
24 -30 -2 -2 -21 -14 -42 -26 -41 -25 -52 -53 -44 -107 5 -31 3 -34 -21 -40
-73 -15 -96 -29 -111 -67 -13 -35 -12 -39 10 -71 13 -19 26 -33 28 -30 2 2 12
-2 20 -10 9 -8 30 -18 46 -21 17 -3 44 -9 60 -12 17 -4 63 -7 102 -7 40 -1 73
-5 73 -9 0 -5 4 -6 9 -3 5 3 26 8 47 10 59 7 115 17 138 26 12 4 23 7 26 7 14
-3 102 68 115 93 24 46 19 97 -10 124 -33 31 -64 37 -210 39 -125 2 -145 8
-145 46 0 31 13 34 105 29 221 -11 392 145 329 302 -21 53 -24 126 -4 121 28
-6 103 -2 112 7 5 5 12 23 17 40 9 28 6 35 -26 67 -19 19 -42 36 -51 36 -10 1
-26 2 -37 3 -11 1 -32 0 -48 -3z m-181 -296 c0 -22 -3 -49 -7 -60 -4 -11 -14
-40 -23 -65 -26 -74 -104 -104 -107 -41 -2 42 2 63 22 120 24 71 45 93 83 89
29 -3 31 -6 32 -43z m-105 -455 c37 -20 15 -68 -37 -84 -42 -13 -113 -9 -138
8 -24 15 -25 24 -17 79 2 11 170 8 192 -3z"/>
<path d="M3544 5315 c-11 -8 -11 -19 -3 -52 10 -38 5 -62 -56 -280 -68 -242
-79 -270 -121 -307 -18 -15 -21 -25 -14 -36 8 -13 49 -15 259 -16 242 -1 330
5 388 27 15 6 29 10 31 10 6 -2 61 57 72 79 32 60 29 140 -6 180 -15 16 -29
28 -32 25 -6 -5 -32 21 -32 32 0 5 20 15 45 22 25 7 45 17 45 22 0 5 6 9 13 9
17 1 48 46 62 93 9 31 9 48 -1 76 -13 40 -58 91 -80 91 -8 0 -14 4 -14 9 0 17
-88 24 -314 25 -141 1 -234 -3 -242 -9z m339 -79 c3 3 15 1 26 -6 45 -23 19
-150 -37 -182 -30 -18 -112 -25 -112 -10 0 4 9 45 21 92 24 92 48 127 79 110
9 -5 20 -7 23 -4z m-44 -325 c14 -14 18 -29 16 -53 -8 -58 -16 -88 -26 -88 -5
0 -9 -5 -9 -11 0 -17 -23 -34 -60 -44 -43 -13 -90 -8 -90 9 0 13 49 187 57
199 10 16 93 7 112 -12z"/>
<path d="M4360 5169 c-89 -24 -112 -48 -75 -79 21 -17 19 -37 -14 -142 -16
-51 -39 -126 -51 -166 -13 -44 -34 -88 -52 -107 -27 -31 -28 -35 -11 -43 10
-5 82 -9 161 -9 113 0 147 3 158 15 13 13 13 16 -1 32 -21 23 -14 83 22 180 3
8 7 20 9 27 1 6 13 47 27 90 41 126 40 166 -5 193 -36 22 -107 25 -168 9z"/>
<path d="M2101 4966 c-12 -14 -5 -26 16 -26 15 0 18 26 4 34 -5 3 -14 0 -20
-8z"/>
<path d="M1896 4841 c-4 -5 -2 -12 3 -15 5 -4 12 -2 15 3 4 5 2 12 -3 15 -5 4
-12 2 -15 -3z"/>
<path d="M2546 4783 c-1 -1 -17 -3 -34 -5 -25 -2 -34 -8 -38 -25 -4 -13 -1
-30 7 -39 16 -19 13 -82 -5 -145 -8 -27 -16 -53 -17 -57 -1 -4 -3 -11 -5 -17
-3 -9 -30 -105 -70 -255 -52 -189 -66 -225 -105 -261 -40 -37 -49 -63 -25 -72
7 -3 104 -6 215 -6 110 -1 204 -1 208 -2 5 -1 13 -1 18 0 6 1 67 2 137 1 147
-1 177 9 207 68 10 20 19 39 18 42 0 3 8 38 18 79 17 72 17 74 -1 85 -58 34
-83 24 -182 -79 -40 -41 -82 -76 -93 -76 -62 -4 -126 -5 -136 -1 -14 4 -11 41
7 87 5 14 9 29 8 33 -1 7 4 23 23 70 6 15 6 21 -1 17 -5 -3 -3 7 5 22 8 15 15
36 15 46 0 13 9 17 40 17 41 0 47 -4 83 -60 35 -55 92 -52 111 5 3 11 6 23 6
28 0 4 6 23 14 42 9 20 15 38 16 40 0 3 0 6 1 8 38 125 -13 165 -105 82 -22
-19 -42 -36 -45 -36 -26 -6 -67 -3 -72 4 -8 12 44 212 60 231 8 9 35 13 91 12
85 -1 106 -11 116 -57 8 -38 12 -54 14 -56 2 -2 3 -7 4 -13 3 -25 38 -50 68
-50 39 0 51 7 67 37 18 34 52 189 45 206 -3 9 -19 22 -35 29 -16 7 -29 15 -29
18 0 5 -619 8 -624 3z"/>
<path d="M3340 4436 c-6 -6 -10 -7 -10 -3 0 14 -58 -22 -79 -49 -12 -15 -21
-41 -21 -60 0 -29 -3 -34 -24 -34 -33 0 -42 -17 -22 -39 9 -10 13 -21 9 -24
-3 -4 -2 -7 4 -7 13 0 10 -12 -24 -130 -14 -47 -34 -95 -46 -107 -11 -13 -18
-26 -14 -29 9 -10 183 -13 198 -3 10 6 10 13 1 33 -8 17 -8 26 -1 26 6 0 8 4
4 9 -3 5 -1 12 5 16 6 4 8 10 6 14 -3 4 8 48 24 97 27 83 30 89 60 95 17 4 34
9 37 12 14 15 43 -15 43 -44 0 -46 -50 -201 -73 -226 -10 -12 -16 -26 -13 -31
5 -8 165 -10 198 -3 3 0 5 19 3 42 -1 22 5 63 15 92 10 29 24 74 31 101 8 27
19 50 24 51 6 2 22 6 38 9 18 4 27 13 27 26 0 15 -8 19 -42 22 -42 3 -43 4
-46 40 -2 27 3 43 17 57 29 29 41 26 41 -7 0 -39 17 -52 67 -52 37 0 45 4 57
29 14 26 14 30 -7 48 -31 28 -73 39 -137 37 -30 -1 -56 -3 -57 -4 -2 -1 -6 -3
-10 -4 -5 -1 -23 -7 -40 -15 -29 -12 -38 -11 -75 4 -48 20 -153 26 -168 11z
m80 -47 c0 -39 19 -59 54 -59 22 0 36 -6 40 -16 9 -24 4 -26 -59 -25 -89 1
-97 6 -92 54 6 53 57 95 57 46z"/>
<path d="M4773 4373 c-13 -2 -42 -22 -65 -44 -28 -26 -51 -39 -69 -39 -36 0
-44 -15 -25 -45 21 -32 20 -60 -3 -128 -31 -89 -32 -114 -8 -143 41 -48 163
-38 213 17 16 17 16 19 0 25 -9 4 -20 4 -23 1 -3 -4 -14 -2 -24 3 -23 13 -22
20 36 208 3 6 15 12 28 12 30 0 62 24 53 38 -4 7 -19 12 -33 12 -23 0 -25 2
-19 34 5 28 3 37 -13 45 -11 6 -21 10 -23 10 -2 -1 -13 -4 -25 -6z"/>
<path d="M5856 4301 c-3 -5 0 -14 8 -20 10 -8 16 -8 25 2 6 8 8 17 4 20 -9 10
-31 9 -37 -2z"/>
<path d="M3888 4284 c-54 -19 -118 -74 -143 -124 -23 -44 -23 -122 0 -156 23
-35 90 -64 151 -64 103 0 190 50 232 134 43 85 26 168 -42 203 -44 23 -142 26
-198 7z m102 -49 c15 -18 -8 -123 -43 -195 -24 -50 -60 -66 -70 -31 -2 11 -2
23 2 26 3 4 6 14 7 23 1 27 25 106 36 120 6 6 7 12 4 12 -4 0 2 14 14 30 24
34 32 36 50 15z"/>
<path d="M4270 4287 c-26 -9 -34 -17 -32 -32 2 -11 4 -29 4 -40 2 -32 -61
-223 -79 -240 -25 -25 -3 -33 96 -33 93 -1 125 8 103 30 -16 16 -15 44 4 104
47 148 56 158 96 104 18 -25 27 -29 57 -26 19 2 40 12 48 22 20 27 16 78 -8
100 -27 24 -91 25 -118 0 -19 -18 -21 -18 -47 3 -30 23 -71 26 -124 8z"/>
<path d="M6127 4242 c-15 -17 -15 -19 2 -34 18 -15 21 -15 35 1 20 23 20 28
-3 40 -14 8 -22 6 -34 -7z"/>
<path d="M5570 4211 c0 -6 9 -9 19 -8 11 0 17 5 15 9 -7 11 -34 10 -34 -1z"/>
<path d="M5620 4197 c0 -2 18 -18 40 -36 22 -17 40 -28 40 -24 0 8 -80 68 -80
60z"/>
<path d="M5547 4169 c-10 -11 -17 -25 -15 -30 2 -5 11 4 21 21 21 35 19 39 -6
9z"/>
<path d="M5137 4148 c-13 -18 -49 -69 -80 -113 -31 -44 -60 -85 -64 -90 -30
-39 -73 -105 -73 -112 0 -4 24 -24 53 -43 28 -19 54 -37 57 -40 3 -3 24 -20
48 -39 23 -18 46 -41 51 -50 10 -18 7 -21 -88 -125 -20 -21 -29 -35 -21 -31 8
5 40 35 69 67 30 32 60 58 66 58 7 0 25 -11 41 -25 15 -13 30 -22 33 -20 2 3
-7 14 -20 25 -13 12 -46 41 -74 66 -27 24 -65 57 -84 73 l-34 28 48 69 c26 38
68 95 91 127 24 31 44 62 44 67 0 6 4 10 8 10 5 0 15 11 22 25 8 14 20 23 27
21 7 -3 13 -1 13 4 0 6 -4 10 -9 10 -5 0 -16 6 -23 13 -7 7 -27 23 -45 35
l-32 22 -24 -32z m77 -70 c-8 -16 -23 -37 -32 -46 -10 -10 -28 -33 -42 -52
-47 -67 -60 -73 -67 -28 -3 18 -1 19 14 7 10 -7 15 -10 11 -5 -4 5 2 26 13 48
11 22 16 37 11 34 -5 -3 -15 -19 -22 -35 -7 -17 -17 -29 -24 -28 -6 1 -11 -5
-10 -13 1 -9 -8 -17 -20 -18 -15 -1 -17 1 -7 7 7 5 11 13 7 19 -3 5 1 12 9 16
8 3 15 13 15 21 0 10 5 13 12 9 7 -4 8 -3 4 4 -7 11 56 119 78 134 5 3 22 -5
37 -20 26 -24 27 -27 13 -54z m-141 -157 c4 -1 7 -8 7 -17 0 -9 -6 -14 -12
-11 -7 2 -12 10 -10 17 2 10 -1 10 -14 -1 -9 -8 -18 -12 -18 -9 -1 3 -13 -6
-27 -20 -14 -14 -24 -31 -21 -38 2 -7 -4 -12 -13 -12 -17 0 -17 -1 25 63 20
29 30 36 50 33 14 -3 28 -5 33 -5z m-37 -76 c-15 -19 -34 -35 -42 -35 -8 0
-12 5 -9 10 3 6 12 10 20 10 15 0 28 27 18 42 -3 7 -1 8 5 4 8 -4 12 0 12 10
0 14 3 15 12 6 8 -8 4 -20 -16 -47z"/>
<path d="M5714 4131 c7 -11 46 -35 46 -28 0 3 -12 12 -26 22 -15 9 -23 12 -20
6z"/>
<path d="M5488 4088 c-32 -40 -33 -51 -8 -60 17 -6 18 -5 8 12 -10 15 -9 22 3
37 9 10 19 24 23 31 13 22 0 12 -26 -20z"/>
<path d="M5776 4087 c3 -10 9 -15 12 -12 3 3 0 11 -7 18 -10 9 -11 8 -5 -6z"/>
<path d="M5806 4069 c7 -12 85 -62 89 -57 2 2 -19 17 -46 35 -27 17 -47 27
-43 22z"/>
<path d="M5415 4049 c-4 -6 -5 -12 -2 -15 2 -3 7 2 10 11 7 17 1 20 -8 4z"/>
<path d="M5539 3991 c35 -33 41 -36 41 -23 0 4 -17 17 -38 30 l-37 24 34 -31z"/>
<path d="M5927 3989 c7 -7 15 -10 18 -7 3 3 -2 9 -12 12 -14 6 -15 5 -6 -5z"/>
<path d="M5960 3976 c0 -2 8 -10 18 -17 15 -13 16 -12 3 4 -13 16 -21 21 -21
13z"/>
<path d="M5605 3940 c21 -24 26 -25 19 -6 -3 8 -13 17 -22 21 -13 5 -13 2 3
-15z"/>
<path d="M5646 3916 c3 -9 10 -16 14 -16 4 0 22 -13 40 -28 25 -22 31 -34 26
-50 -11 -34 -38 -43 -72 -26 l-29 15 25 -23 c14 -13 42 -34 62 -48 21 -14 38
-28 38 -32 0 -5 6 -8 13 -8 6 0 -6 15 -28 34 -36 31 -38 34 -23 50 24 24 31
55 17 72 -24 29 -89 76 -83 60z"/>
<path d="M6075 3900 c3 -5 8 -10 11 -10 2 0 4 5 4 10 0 6 -5 10 -11 10 -5 0
-7 -4 -4 -10z"/>
<path d="M6130 3873 c0 -9 3 -13 6 -10 4 4 20 -3 35 -14 16 -11 29 -17 29 -12
0 4 -16 18 -35 31 -30 19 -35 20 -35 5z"/>
<path d="M5555 3861 c-3 -5 -2 -12 3 -15 5 -3 9 1 9 9 0 17 -3 19 -12 6z"/>
<path d="M5586 3836 c6 -15 34 -30 34 -18 0 4 -9 13 -20 19 -16 11 -18 10 -14
-1z"/>
<path d="M6212 3830 c3 -8 1 -25 -3 -37 -5 -13 -5 -23 0 -23 15 0 23 52 10 64
-8 8 -10 7 -7 -4z"/>
<path d="M2791 3774 c-11 -13 -11 -18 1 -30 12 -12 17 -12 33 0 17 12 18 15 3
30 -20 19 -19 19 -37 0z"/>
<path d="M6186 3745 c-3 -8 -1 -15 4 -15 6 0 10 7 10 15 0 8 -2 15 -4 15 -2 0
-6 -7 -10 -15z"/>
<path d="M3422 3723 c-12 -23 -5 -41 21 -55 22 -11 22 -11 3 10 -24 27 -15 49
21 55 27 4 27 4 -4 6 -22 1 -35 -5 -41 -16z"/>
<path d="M6151 3667 c-13 -28 -36 -70 -50 -92 -14 -22 -33 -53 -41 -70 -8 -16
-23 -39 -32 -49 -10 -11 -18 -27 -18 -35 0 -9 16 9 35 39 19 30 35 60 35 68 0
7 5 10 10 7 6 -3 10 0 10 8 0 8 7 20 15 27 9 7 13 15 10 18 -3 3 2 14 12 24 9
10 12 18 8 18 -4 0 0 9 10 20 10 11 15 20 11 20 -3 0 1 11 10 25 9 14 12 25 8
25 -5 0 -20 -24 -33 -53z"/>
<path d="M4673 3686 c-28 -29 -28 -30 1 -59 l25 -25 27 29 27 28 -24 25 c-29
31 -29 31 -56 2z"/>
<path d="M5610 3685 c13 -14 28 -25 33 -25 8 0 30 -16 85 -61 6 -5 12 -6 12
-1 0 5 -21 24 -47 42 -27 19 -49 38 -51 42 -2 4 -10 8 -18 8 -8 0 -14 5 -14
10 0 6 -5 10 -12 10 -6 0 -1 -11 12 -25z"/>
<path d="M5813 3665 c20 -18 37 -42 37 -51 0 -10 3 -15 6 -11 16 16 -43 97
-71 97 -5 0 7 -16 28 -35z"/>
<path d="M3593 3678 c2 -7 -9 -25 -25 -39 -27 -25 -28 -28 -13 -43 19 -18 35
-21 35 -5 0 5 -4 8 -9 4 -5 -3 -13 0 -16 5 -8 13 23 50 42 50 15 0 15 2 7 24
-7 19 -28 22 -21 4z"/>
<path d="M3667 3683 c-10 -9 -9 -93 1 -93 4 0 8 23 10 50 2 50 1 55 -11 43z"/>
<path d="M3714 3674 c9 -8 16 -20 16 -26 0 -6 3 -9 6 -5 10 10 -7 47 -22 47
-13 0 -13 -2 0 -16z"/>
<path d="M3996 3672 c-23 -26 -12 -82 17 -82 8 0 7 3 -2 9 -7 5 -10 14 -7 20
4 6 2 11 -4 11 -12 0 6 40 24 52 8 6 8 8 0 8 -6 0 -18 -8 -28 -18z"/>
<path d="M4044 3674 c3 -8 6 -18 6 -20 0 -3 5 -2 10 1 15 9 12 22 -6 29 -12 5
-15 2 -10 -10z"/>
<path d="M6061 3658 c-7 -18 -27 -50 -43 -71 -17 -21 -28 -41 -25 -43 6 -7 67
80 67 95 0 6 4 11 9 11 5 0 11 9 14 20 8 32 -7 23 -22 -12z"/>
<path d="M3787 3652 c-7 -16 -18 -27 -24 -25 -8 3 -13 -4 -13 -16 0 -23 16
-36 23 -18 3 6 12 29 21 50 9 20 14 37 11 37 -3 0 -11 -13 -18 -28z"/>
<path d="M4110 3668 c0 -7 14 -21 30 -30 29 -17 40 -37 20 -39 -5 -1 -14 -2
-19 -3 -16 -2 -25 -16 -10 -15 27 1 54 16 54 30 0 8 -12 20 -27 28 -16 7 -28
20 -28 27 0 8 -4 14 -10 14 -5 0 -10 -6 -10 -12z"/>
<path d="M2581 3657 c-9 -11 -8 -17 4 -27 12 -10 16 -9 21 5 9 23 -10 40 -25
22z"/>
<path d="M3470 3663 c0 -5 5 -14 11 -20 18 -18 2 -43 -26 -43 -14 0 -25 -4
-25 -8 0 -13 43 -9 58 5 17 16 15 48 -3 63 -8 7 -15 8 -15 3z"/>
<path d="M3533 3649 c-1 -12 -1 -20 0 -18 2 2 9 12 16 22 11 14 11 17 -1 17
-7 0 -14 -10 -15 -21z"/>
<path d="M3839 3648 c-6 -25 -6 -39 1 -43 4 -3 10 4 13 15 3 11 1 23 -4 26 -5
3 -9 4 -10 2z"/>
<path d="M3890 3642 c0 -17 32 -52 48 -51 13 0 12 3 -5 11 -13 6 -23 19 -23
30 0 10 -4 18 -10 18 -5 0 -10 -3 -10 -8z"/>
<path d="M4048 3599 c-10 -10 -14 -19 -10 -19 5 0 17 9 27 20 10 11 14 20 9
19 -5 0 -17 -9 -26 -20z"/>
<path d="M5530 3613 c8 -3 23 -12 33 -21 10 -9 17 -11 17 -4 0 13 -32 32 -52
31 -9 0 -8 -2 2 -6z"/>
<path d="M3600 3599 c0 -5 5 -7 10 -4 6 3 10 8 10 11 0 2 -4 4 -10 4 -5 0 -10
-5 -10 -11z"/>
<path d="M5590 3582 c0 -5 7 -15 15 -22 8 -7 15 -9 15 -6 0 4 -7 14 -15 22 -8
9 -15 11 -15 6z"/>
<path d="M5779 3564 c38 -31 39 -46 5 -73 -25 -19 -27 -19 -52 -3 -15 9 -30
21 -34 27 -5 7 -8 7 -8 0 0 -6 9 -18 20 -28 35 -30 20 -77 -26 -77 -11 0 -51
23 -87 50 -36 28 -69 50 -72 50 -3 0 -15 9 -27 20 -12 11 -24 18 -26 15 -6 -6
16 -25 79 -68 31 -20 61 -47 68 -60 10 -19 19 -22 49 -19 39 4 72 26 72 47 0
7 13 18 29 24 31 13 57 53 47 70 -4 6 2 19 14 31 11 11 16 20 11 20 -6 0 -12
-4 -16 -9 -3 -6 -18 -6 -38 0 -17 5 -33 9 -35 9 -2 0 10 -12 27 -26z"/>
<path d="M5257 3563 c12 -10 38 -29 58 -43 20 -14 42 -29 48 -35 7 -5 32 -23
57 -40 25 -16 47 -32 50 -35 21 -21 40 -31 40 -21 0 6 -24 27 -52 46 -29 19
-64 43 -78 54 -14 11 -29 21 -33 21 -4 0 -16 8 -27 18 -10 9 -34 25 -52 35
-32 18 -32 18 -11 0z"/>
<path d="M5630 3550 c0 -5 4 -10 9 -10 5 0 17 -7 25 -16 9 -8 16 -11 16 -6 0
5 -11 17 -25 26 -14 9 -25 12 -25 6z"/>
<path d="M5990 3396 c0 -8 -3 -16 -8 -18 -4 -1 -33 -37 -63 -78 -31 -41 -70
-91 -87 -110 -17 -19 -28 -37 -26 -40 6 -5 17 8 102 120 31 41 65 84 75 94 16
18 23 46 12 46 -3 0 -5 -6 -5 -14z"/>
<path d="M5611 3384 c-1 -6 -11 -16 -23 -23 -23 -11 -23 -11 2 -5 31 8 33 10
27 26 -3 7 -6 8 -6 2z"/>
<path d="M5534 3365 c11 -8 22 -12 25 -9 6 6 -19 24 -34 24 -5 -1 -1 -7 9 -15z"/>
<path d="M5390 3116 c0 -9 5 -16 10 -16 6 0 10 4 10 9 0 6 -4 13 -10 16 -5 3
-10 -1 -10 -9z"/>
<path d="M5480 3059 c0 -5 5 -7 10 -4 6 3 10 8 10 11 0 2 -4 4 -10 4 -5 0 -10
-5 -10 -11z"/>
</g>
</svg>
